name processed_emg_signals						
nRows=49						
nColumns=7						
 						
endheader						
time	LGLTMED	LRF	LADDLONG	LST	LTA	LGM
0.210752	0.421572516	0.533921386	0.634798318	0.374546615	0.904980571	0.57657134
0.211752	0.420957999	0.535465275	0.63777536	0.374747222	0.904353517	0.575452282
0.212752	0.420325847	0.537025831	0.640876627	0.374981531	0.903718552	0.574339111
0.213752	0.419676217	0.538601729	0.644099622	0.375249444	0.903074153	0.573233601
0.214752	0.419009332	0.540191645	0.647441762	0.375550811	0.902418861	0.572137493
0.215752	0.418325474	0.541794267	0.650900383	0.375885424	0.901751288	0.571052493
0.216752	0.417624986	0.543408288	0.654472743	0.37625302	0.901070125	0.569980266
0.217752	0.41690827	0.545032411	0.658156027	0.376653278	0.900374148	0.568922435
0.218752	0.416175788	0.546665349	0.661947348	0.377085819	0.899662227	0.567880575
0.219752	0.415428057	0.548305824	0.665843751	0.377550205	0.898933335	0.566856212
0.220752	0.414665651	0.549952572	0.669842219	0.378045942	0.898186548	0.565850821
0.221752	0.4138892	0.551604339	0.673939671	0.378572475	0.897421056	0.56486582
0.222752	0.413099387	0.553259889	0.67813297	0.379129195	0.896636168	0.563902571
0.223752	0.412296947	0.554917996	0.682418923	0.379715435	0.895831312	0.562962378
0.224752	0.411482667	0.556577454	0.686794285	0.380330472	0.895006043	0.562046481
0.225752	0.410657384	0.55823707	0.69125576	0.380973528	0.894160045	0.561156061
0.226752	0.409821984	0.559895672	0.695800004	0.381643775	0.893293133	0.560292233
0.227752	0.408977401	0.561552108	0.70042363	0.382340329	0.892405254	0.559456049
0.228752	0.408124618	0.563205243	0.705123204	0.383062261	0.89149649	0.558648495
0.229752	0.407264659	0.564853965	0.709895255	0.383808592	0.890567056	0.557870491
0.230752	0.406398597	0.566497188	0.71473627	0.384578299	0.8896173	0.557122892
0.231752	0.405527546	0.568133845	0.719642699	0.385370316	0.888647705	0.556406486
0.232752	0.404652663	0.569762896	0.724610958	0.386183537	0.887658881	0.555721996
0.233752	0.403775148	0.57138333	0.729637428	0.387016821	0.886651569	0.55507008
0.234752	0.402896239	0.57299416	0.734718459	0.387868989	0.885626633	0.554451331
0.235752	0.402017214	0.57459443	0.739850366	0.388738834	0.884585059	0.55386628
0.236752	0.401139391	0.576183213	0.745029441	0.389625122	0.883527951	0.553315396
0.237752	0.400264123	0.577759615	0.750251942	0.390526592	0.882456525	0.552799085
0.238752	0.399392801	0.579322772	0.755514103	0.391441966	0.881372103	0.552317698
0.239752	0.39852685	0.580871856	0.760812131	0.392369946	0.880276112	0.551871526
0.240752	0.397667731	0.582406075	0.766142209	0.393309223	0.879170071	0.551460805
0.241752	0.396816936	0.583924671	0.771500495	0.394258478	0.87805559	0.551085719
0.242752	0.395975992	0.585426926	0.776883124	0.395216385	0.876934361	0.550746402
0.243752	0.395146454	0.586912161	0.782286208	0.39618162	0.875808152	0.550442936
0.244752	0.394329909	0.588379735	0.787705838	0.397152857	0.874678797	0.55017536
0.245752	0.393527972	0.589829053	0.793138083	0.398128779	0.873548191	0.549943668
0.246752	0.392742285	0.591259557	0.798578993	0.399108078	0.872418281	0.549747814
0.247752	0.391974516	0.592670739	0.804024595	0.400089461	0.871291058	0.549587713
0.248752	0.391226358	0.594062131	0.809470899	0.401071651	0.870168546	0.549463244
0.249752	0.390499528	0.595433313	0.814913898	0.402053394	0.869052799	0.549374251
0.250752	0.389795762	0.596783914	0.820349565	0.403033459	0.867945887	0.54932055
0.251752	0.389116817	0.598113606	0.825773857	0.404010646	0.866849891	0.549301926
0.252752	0.388464467	0.599422114	0.831182719	0.404983785	0.86576689	0.54931814
0.253752	0.387840502	0.60070921	0.836572079	0.405951741	0.864698959	0.549368928
0.254752	0.387246725	0.601974715	0.841937855	0.406913419	0.863648153	0.549454006
0.255752	0.386684948	0.6032185	0.847275955	0.407867763	0.862616503	0.549573071
0.256752	0.386156992	0.604440487	0.85258228	0.408813762	0.861606007	0.549725803
0.257752	0.385664683	0.605640648	0.857852725	0.409750451	0.860618621	0.549911867
0.258752	0.385209849	0.606819001	0.863083183	0.410676914	0.859656249	0.550130917
